<svg xmlns="http://www.w3.org/2000/svg" xmlns:xlink="http://www.w3.org/1999/xlink"><symbol id="cart"><g fill="none"><path d="M4.333 1 1 5.4v15.4c0 .584.234 1.143.65 1.556.418.412.983.644 1.572.644h15.556c.59 0 1.154-.232 1.571-.644.417-.413.651-.973.651-1.556V5.4L17.667 1H4.333ZM1 5.4h20" stroke="#000" stroke-width="2" stroke-linecap="round" stroke-linejoin="round"/><path d="M15.445 9.8a4.378 4.378 0 0 1-1.302 3.111A4.467 4.467 0 0 1 11 14.2a4.467 4.467 0 0 1-3.142-1.289A4.378 4.378 0 0 1 6.556 9.8" stroke="#000" stroke-width="2" stroke-linecap="round" stroke-linejoin="round"/></g></symbol><symbol id="heart"><g fill="none"><path d="M23.15 2.945a6.304 6.304 0 0 0-2.05-1.44A6.05 6.05 0 0 0 18.683 1a6.05 6.05 0 0 0-2.417.505 6.304 6.304 0 0 0-2.05 1.44L13 4.224l-1.217-1.279C10.598 1.7 8.992 1.001 7.316 1.001 5.641 1 4.035 1.7 2.85 2.945S1 5.878 1 7.639c0 1.76.665 3.449 1.85 4.694l1.217 1.279L13 23l8.932-9.388 1.217-1.28a6.667 6.667 0 0 0 1.37-2.153A6.93 6.93 0 0 0 25 7.64a6.93 6.93 0 0 0-.481-2.54 6.668 6.668 0 0 0-1.37-2.154v0Z" stroke="#000" stroke-width="2" stroke-linecap="round" stroke-linejoin="round"/></g></symbol><symbol id="logo"><g fill="none"><path d="M0 23.765V.235h3.485v21.143h8.936v2.387H0ZM19.253 5.916c0-1.815.58-3.25 1.742-4.303C22.187.538 23.99 0 26.401 0c2.413 0 4.215.538 5.407 1.613 1.191 1.054 1.787 2.488 1.787 4.303v12.168c0 1.793-.596 3.227-1.787 4.303C30.616 23.462 28.814 24 26.4 24c-2.412 0-4.214-.538-5.406-1.613-1.161-1.076-1.742-2.51-1.742-4.303V5.916Zm3.44 12.302c0 1.076.298 1.916.894 2.521.625.583 1.564.874 2.814.874 1.281 0 2.22-.29 2.815-.873.596-.605.894-1.446.894-2.521V5.781c0-1.076-.298-1.905-.894-2.488-.595-.605-1.534-.907-2.815-.907-1.25 0-2.189.302-2.814.907-.596.583-.894 1.412-.894 2.488v12.436ZM48.101 0c2.413 0 4.185.538 5.317 1.613 1.161 1.076 1.742 2.51 1.742 4.303v2.017h-3.306V5.782c0-1.076-.298-1.905-.894-2.488-.566-.605-1.489-.907-2.77-.907-1.25 0-2.174.302-2.77.907-.596.583-.893 1.412-.893 2.488v12.436c0 1.076.297 1.916.893 2.521.596.583 1.52.874 2.77.874 1.281 0 2.205-.29 2.77-.873.596-.605.894-1.446.894-2.521v-4.706h-3.217V11.16h6.523v6.924c0 1.793-.58 3.227-1.742 4.303C52.286 23.462 50.514 24 48.1 24c-2.383 0-4.155-.538-5.317-1.613-1.132-1.076-1.698-2.51-1.698-4.303V5.916c0-.896.134-1.703.402-2.42a5.07 5.07 0 0 1 1.296-1.883c.596-.515 1.326-.907 2.19-1.176C45.866.146 46.91 0 48.1 0ZM62.658 5.916c0-1.815.58-3.25 1.742-4.303C65.592.538 67.394 0 69.807 0c2.412 0 4.214.538 5.406 1.613C76.404 2.667 77 4.101 77 5.916v12.168c0 1.793-.596 3.227-1.787 4.303C74.02 23.462 72.219 24 69.807 24c-2.413 0-4.215-.538-5.407-1.613-1.161-1.076-1.742-2.51-1.742-4.303V5.916Zm3.44 12.302c0 1.076.298 1.916.894 2.521.625.583 1.564.874 2.815.874 1.28 0 2.219-.29 2.814-.873.596-.605.894-1.446.894-2.521V5.781c0-1.076-.298-1.905-.894-2.488-.595-.605-1.533-.907-2.814-.907-1.251 0-2.19.302-2.815.907-.596.583-.894 1.412-.894 2.488v12.436Z" fill="#000"/></g></symbol><symbol id="search"><g fill="none"><path d="M10.778 20.555c5.4 0 9.777-4.377 9.777-9.777 0-5.4-4.377-9.778-9.777-9.778C5.378 1 1 5.378 1 10.778s4.378 9.777 9.778 9.777ZM23 23l-5.317-5.317" stroke="#000" stroke-width="2" stroke-linecap="round" stroke-linejoin="round"/></g></symbol><symbol id="user"><g fill="none"><path d="M23 26v-2.778c0-1.473-.58-2.886-1.61-3.928a5.472 5.472 0 0 0-3.89-1.627h-11a5.472 5.472 0 0 0-3.89 1.627A5.584 5.584 0 0 0 1 23.222V26M12 12.111c3.038 0 5.5-2.487 5.5-5.555C17.5 3.487 15.038 1 12 1S6.5 3.487 6.5 6.556c0 3.068 2.462 5.555 5.5 5.555Z" stroke="#000" stroke-width="2" stroke-linecap="round" stroke-linejoin="round"/></g></symbol></svg>